<?xml version="1.0" encoding="utf-8"?>
<!-- Generator: Adobe Illustrator 15.0.0, SVG Export Plug-In . SVG Version: 6.00 Build 0)  -->
<!DOCTYPE svg PUBLIC "-//W3C//DTD SVG 1.1//EN" "http://www.w3.org/Graphics/SVG/1.1/DTD/svg11.dtd">
<svg version="1.1" id="Layer_1" xmlns="http://www.w3.org/2000/svg" xmlns:xlink="http://www.w3.org/1999/xlink" x="0px" y="0px"
	 width="500px" height="500px" viewBox="0 0 500 500" enable-background="new 0 0 500 500" xml:space="preserve">
<circle fill="#FFFFFF" cx="-270" cy="250" r="224.855"/>
<linearGradient id="SVGID_1_" gradientUnits="userSpaceOnUse" x1="-271.3169" y1="497.5938" x2="-271.3169" y2="58.576">
	<stop  offset="0" style="stop-color:#4C2D87"/>
	<stop  offset="0.25" style="stop-color:#E82264"/>
	<stop  offset="0.5" style="stop-color:#EF4538"/>
	<stop  offset="0.75" style="stop-color:#FDC113"/>
	<stop  offset="1" style="stop-color:#FEEA3A"/>
</linearGradient>
<circle fill="url(#SVGID_1_)" cx="-271.317" cy="249.594" r="250"/>
<g>
	<path fill="#FFFFFF" d="M-177.077,160.63c-2.152,3.325-4.35,5.716-6.594,7.182c-2.25,1.465-5.328,2.198-9.234,2.198
		c-3.912,0-7.914-0.976-12.018-2.931c-4.105-1.951-8.699-4.054-13.777-6.302c-5.084-2.245-10.896-4.347-17.441-6.302
		c-6.549-1.951-14.121-2.932-22.717-2.932c-13.095,0-23.259,2.689-30.486,8.061c-7.232,5.377-10.846,12.458-10.846,21.252
		c0,6.06,2.052,11.139,6.156,15.243c4.104,4.104,9.527,7.672,16.269,10.699c6.742,3.032,14.41,5.863,23.011,8.5
		c8.596,2.638,17.441,5.524,26.527,8.647c9.088,3.128,17.928,6.742,26.529,10.846c8.596,4.104,16.268,9.234,23.01,15.389
		c6.742,6.156,12.164,13.586,16.268,22.279c4.105,8.697,6.156,19.199,6.156,31.51c0,14.656-2.688,28.191-8.061,40.6
		c-5.377,12.412-13.242,23.111-23.598,32.098c-10.359,8.99-23.258,16.025-38.691,21.104c-15.439,5.08-33.225,7.623-53.35,7.623
		c-10.36,0-20.62-0.93-30.778-2.785c-10.164-1.859-19.837-4.494-29.02-7.914c-9.188-3.418-17.785-7.375-25.795-11.873
		c-8.016-4.492-14.95-9.379-20.812-14.656l18.76-30.191c2.148-3.518,4.837-6.252,8.061-8.209c3.225-1.949,7.374-2.93,12.458-2.93
		c4.882,0,9.38,1.223,13.484,3.664c4.104,2.445,8.693,5.084,13.777,7.914c5.079,2.834,11.088,5.473,18.027,7.914
		c6.934,2.445,15.582,3.664,25.941,3.664c7.814,0,14.555-0.879,20.227-2.639c5.664-1.758,10.258-4.148,13.775-7.182
		c3.518-3.027,6.105-6.447,7.77-10.258c1.656-3.812,2.49-7.77,2.49-11.873c0-6.641-2.102-12.064-6.303-16.268
		c-4.203-4.201-9.672-7.865-16.414-10.992c-6.742-3.125-14.511-5.959-23.304-8.502c-8.794-2.537-17.734-5.371-26.821-8.5
		c-9.087-3.123-17.982-6.838-26.675-11.139c-8.698-4.297-16.415-9.719-23.157-16.27c-6.742-6.544-12.215-14.605-16.415-24.183
		c-4.205-9.572-6.302-21.201-6.302-34.882c0-12.503,2.441-24.375,7.328-35.615c4.882-11.235,12.21-21.151,21.984-29.753
		c9.77-8.597,21.935-15.435,36.495-20.519c14.556-5.08,31.411-7.622,50.564-7.622c21.494,0,41.039,3.518,58.625,10.553
		c17.588,7.035,32.049,16.223,43.385,27.554L-177.077,160.63z"/>
</g>
<g>
	<linearGradient id="SVGID_2_" gradientUnits="userSpaceOnUse" x1="248.6826" y1="498.2363" x2="248.6826" y2="0.3208">
		<stop  offset="0" style="stop-color:#4C2D87"/>
		<stop  offset="0.25" style="stop-color:#E82264"/>
		<stop  offset="0.5" style="stop-color:#EF4538"/>
		<stop  offset="0.75" style="stop-color:#FDC113"/>
		<stop  offset="1" style="stop-color:#FEEA3A"/>
	</linearGradient>
	<path fill="url(#SVGID_2_)" d="M248.683-0.406c-138.071,0-250,111.929-250,250c0,138.072,111.929,250,250,250s250-111.928,250-250
		C498.683,111.523,386.754-0.406,248.683-0.406z M250,453.993c-112.662,0-203.993-91.331-203.993-203.993S137.338,46.007,250,46.007
		c112.663,0,203.993,91.331,203.993,203.993S362.663,453.993,250,453.993z"/>
	<linearGradient id="SVGID_3_" gradientUnits="userSpaceOnUse" x1="248.6826" y1="498.2363" x2="248.6826" y2="0.3208">
		<stop  offset="0" style="stop-color:#4C2D87"/>
		<stop  offset="0.25" style="stop-color:#E82264"/>
		<stop  offset="0.5" style="stop-color:#EF4538"/>
		<stop  offset="0.75" style="stop-color:#FDC113"/>
		<stop  offset="1" style="stop-color:#FEEA3A"/>
	</linearGradient>
	<path fill="url(#SVGID_3_)" d="M341.312,250.18c-6.742-6.154-14.414-11.285-23.01-15.389c-8.602-4.104-17.441-7.717-26.529-10.846
		c-9.086-3.124-17.932-6.009-26.527-8.647c-8.602-2.638-16.269-5.468-23.011-8.5c-6.742-3.027-12.165-6.595-16.27-10.699
		c-4.104-4.104-6.155-9.183-6.155-15.243c0-8.794,3.614-15.875,10.846-21.252c7.228-5.372,17.392-8.061,30.486-8.061
		c8.596,0,16.168,0.98,22.717,2.932c6.545,1.956,12.357,4.058,17.441,6.302c5.078,2.249,9.672,4.351,13.777,6.302
		c4.104,1.956,8.105,2.931,12.018,2.931c3.906,0,6.984-0.733,9.234-2.198c2.244-1.466,4.441-3.856,6.594-7.182l18.469-28.727
		c-11.336-11.332-25.797-20.519-43.385-27.554c-17.586-7.035-37.131-10.553-58.625-10.553c-19.153,0-36.009,2.542-50.564,7.622
		c-14.56,5.083-26.726,11.922-36.495,20.519c-9.773,8.602-17.102,18.518-21.984,29.753c-4.887,11.239-7.328,23.111-7.328,35.615
		c0,13.681,2.098,25.31,6.303,34.882c4.199,9.577,9.674,17.638,16.415,24.183c6.742,6.551,14.46,11.973,23.157,16.27
		c8.693,4.301,17.588,8.016,26.675,11.139c9.087,3.129,18.027,5.963,26.821,8.5c8.793,2.543,16.562,5.377,23.304,8.502
		c6.742,3.127,12.211,6.791,16.414,10.992c4.201,4.203,6.303,9.627,6.303,16.268c0,4.104-0.834,8.061-2.49,11.873
		c-1.664,3.811-4.252,7.23-7.77,10.258c-3.518,3.033-8.111,5.424-13.775,7.182c-5.672,1.76-12.413,2.639-20.228,2.639
		c-10.359,0-19.007-1.219-25.941-3.664c-6.938-2.441-12.947-5.08-18.027-7.914c-5.084-2.83-9.673-5.469-13.777-7.914
		c-4.104-2.441-8.602-3.664-13.483-3.664c-5.084,0-9.233,0.98-12.458,2.93c-3.225,1.957-5.912,4.691-8.061,8.209l-18.761,30.191
		c5.862,5.277,12.797,10.164,20.812,14.656c8.011,4.498,16.607,8.455,25.795,11.873c9.183,3.42,18.856,6.055,29.021,7.914
		c10.158,1.855,20.418,2.785,30.777,2.785c20.126,0,37.911-2.543,53.351-7.623c15.434-5.078,28.332-12.113,38.691-21.104
		c10.355-8.986,18.221-19.686,23.598-32.098c5.373-12.408,8.061-25.943,8.061-40.6c0-12.311-2.051-22.812-6.156-31.51
		C353.476,263.766,348.054,256.336,341.312,250.18z"/>
</g>
</svg>
